<svg width="44" height="31" viewBox="0 0 44 31" fill="none" xmlns="http://www.w3.org/2000/svg">
<path d="M42.6415 9.00972L42.6415 9.02726L42.6439 9.04463C43.2632 13.4585 43.2632 17.9373 42.6439 22.3512L42.6418 22.3666L42.6415 22.3822C42.6106 24.4455 41.7702 26.4141 40.3014 27.8636C38.8326 29.3131 36.8531 30.1275 34.7895 30.1311L34.7895 30.1308L34.7766 30.1315C30.4237 30.3643 26.0354 30.4807 21.6115 30.4807C17.1878 30.4807 12.7743 30.3592 8.37088 30.1163L8.37089 30.116L8.35898 30.1159C6.28832 30.1003 4.30798 29.2658 2.85067 27.7947C1.39336 26.3236 0.577554 24.3355 0.581504 22.2648L0.581529 22.252L0.580257 22.2393C0.139914 17.8489 0.139914 13.4253 0.580257 9.03485L0.581505 9.0224V9.0099C0.581505 4.57029 4.30182 0.565498 8.43311 0.565498V0.565797L8.44531 0.5652C17.146 0.140036 26.044 0.140009 34.805 0.595442C36.9333 0.745472 38.9256 1.697 40.3799 3.25816C41.8348 4.81988 42.643 6.87535 42.6415 9.00972ZM40.0996 22.1581L40.1015 22.1429V22.1275V22.1146C40.6972 17.8688 40.6967 13.5605 40.0998 9.31483C40.0944 9.257 40.0946 9.19878 40.1003 9.14097L40.1015 9.12866V9.1163C40.1015 7.5667 39.459 6.06924 38.4832 4.95932C37.5086 3.85093 36.1795 3.1055 34.7899 3.1055H34.7196C30.3701 2.90789 25.9907 2.8167 21.6115 2.8167C17.2305 2.8167 12.8491 2.90797 8.49775 3.10576L8.49019 3.1061L8.48266 3.1069C7.00216 3.2644 5.63322 3.96711 4.64226 5.07828C3.6513 6.18944 3.10922 7.62956 3.12151 9.11836L3.12163 9.13266L3.12338 9.14685C3.12772 9.18208 3.12772 9.21771 3.12338 9.25294L3.12332 9.25294L3.12278 9.25829C2.68777 13.5504 2.68725 17.8755 3.12122 22.1677C3.10649 22.8726 3.23102 23.5735 3.48774 24.2302C3.74638 24.8918 4.13402 25.4954 4.6281 26.0058C5.12218 26.5162 5.71284 26.9232 6.3657 27.2032C7.01689 27.4825 7.71699 27.6298 8.42546 27.6366C17.1791 28.0927 25.9505 28.0927 34.7042 27.6368C35.4064 27.642 36.1029 27.5092 36.7539 27.2457C37.4073 26.9813 38.0021 26.5906 38.5043 26.0959C39.0064 25.6011 39.4059 25.0122 39.68 24.3628C39.9541 23.7134 40.0973 23.0162 40.1015 22.3114L40.1016 22.2953L40.0996 22.2793C40.0947 22.239 40.0947 22.1983 40.0996 22.1581Z" fill="#EA7F1B" stroke="white" stroke-width="0.5"/>
<path d="M17.9249 8.97315L17.9252 8.97328L28.7738 14.5647C28.9721 14.677 29.1365 14.8406 29.2499 15.0384C29.3639 15.2374 29.4219 15.4636 29.4177 15.6929L29.4177 15.6929L29.4177 15.698C29.4182 15.9312 29.3544 16.16 29.2335 16.3594C29.1125 16.5588 28.939 16.721 28.7319 16.8283L28.7314 16.8286L17.8801 22.4822C17.8799 22.4823 17.8796 22.4824 17.8794 22.4825C17.6988 22.5749 17.4987 22.6227 17.2959 22.6219H17.2949C16.9581 22.6219 16.635 22.4881 16.3969 22.2499C16.1587 22.0117 16.0249 21.6887 16.0249 21.3519V15.6975C16.0249 15.3606 16.1587 15.0376 16.3969 14.7994C16.635 14.5613 16.9581 14.4275 17.2949 14.4275C17.6317 14.4275 17.9548 14.5613 18.1929 14.7994C18.4311 15.0376 18.5649 15.3606 18.5649 15.6975V18.8439V19.2547L18.9298 19.0659L25.0098 15.9195L25.4404 15.6967L25.0092 15.4751L16.7561 11.2346C16.756 11.2345 16.7559 11.2345 16.7559 11.2345C16.6075 11.1577 16.4756 11.0525 16.3679 10.9249C16.2601 10.7971 16.1785 10.6494 16.1277 10.4902C16.077 10.3309 16.0581 10.1632 16.0722 9.99664C16.0863 9.83009 16.133 9.66794 16.2098 9.51945C16.2865 9.37096 16.3918 9.23905 16.5195 9.13123C16.6472 9.02342 16.7949 8.94182 16.9542 8.89109C17.1135 8.84036 17.2812 8.8215 17.4477 8.83558C17.6143 8.84966 17.7764 8.89641 17.9249 8.97315Z" fill="#EA7F1B" stroke="white" stroke-width="0.5"/>
</svg>
