<svg width="263" height="116" viewBox="0 0 263 116" fill="none" xmlns="http://www.w3.org/2000/svg">
<g clip-path="url(#clip0_9_27)">
<path d="M66.6084 2.08887L66.6084 68.9112" stroke="#EA7F1B" stroke-width="4" stroke-linecap="round" stroke-linejoin="round"/>
<path d="M86.2843 13.8073V57.1927" stroke="#EA7F1B" stroke-width="4" stroke-linecap="round" stroke-linejoin="round"/>
<path d="M105.582 24.1053V46.8947" stroke="#EA7F1B" stroke-width="4" stroke-linecap="round" stroke-linejoin="round"/>
<path d="M125.594 38.7899C124.712 37.6828 125.615 36.0535 127.043 36.158C131.306 36.4713 137.186 39.3539 141.742 42.9259C144.934 45.4325 146.194 48.0018 147.244 50.5084C149.659 56.2527 146.152 62.7073 139.936 63.4384C134.519 64.0859 129.689 59.7411 130.004 54.3101C130.277 49.4013 129.458 43.6152 125.594 38.7482V38.7899Z" fill="#EA7F1B"/>
<path d="M125.594 32.231C124.712 33.3381 125.615 34.9674 127.043 34.8629C131.306 34.5496 137.186 31.667 141.742 28.095C144.934 25.5884 146.194 23.0191 147.244 20.5125C149.659 14.7682 146.152 8.31363 139.936 7.58253C134.519 6.93499 129.689 11.2798 130.004 16.7108C130.277 21.6196 129.458 27.4057 125.594 32.2727V32.231Z" fill="#EA7F1B"/>
<path d="M40.5698 35.5105C40.5698 20.8885 46.2185 12.554 50.6703 6.95588C51.5522 5.86968 50.6493 4.28216 49.2423 4.44926C21.0619 7.60343 0 20.3036 0 35.5105C0 50.7173 21.0199 63.3966 49.1373 66.5717C50.5443 66.7388 51.4472 65.1095 50.5443 64.0441C45.3365 57.8611 40.5698 50.4875 40.5698 35.5105ZM24.5687 35.5105C22.1748 35.5105 20.2429 33.5887 20.2429 31.2074C20.2429 28.8261 22.1748 26.9044 24.5687 26.9044C26.9625 26.9044 28.8944 28.8261 28.8944 31.2074C28.8944 33.5887 26.9625 35.5105 24.5687 35.5105Z" fill="#EA7F1B"/>
<path d="M117.993 35.5104L46.9535 35.5104" stroke="#EA7F1B" stroke-width="4" stroke-linecap="round" stroke-linejoin="round"/>
</g>
<g clip-path="url(#clip1_9_27)">
<path d="M209.106 70.3828V114.617" stroke="#EA7F1B" stroke-width="3" stroke-linecap="round" stroke-linejoin="round"/>
<path d="M222.134 78.14V106.86" stroke="#EA7F1B" stroke-width="3" stroke-linecap="round" stroke-linejoin="round"/>
<path d="M234.913 84.957V100.043" stroke="#EA7F1B" stroke-width="3" stroke-linecap="round" stroke-linejoin="round"/>
<path d="M248.164 94.6778C247.58 93.945 248.178 92.8664 249.123 92.9355C251.946 93.143 255.839 95.0512 258.856 97.4157C260.97 99.075 261.804 100.776 262.499 102.435C264.098 106.238 261.776 110.51 257.661 110.994C254.073 111.423 250.875 108.547 251.084 104.952C251.264 101.702 250.722 97.872 248.164 94.6502V94.6778Z" fill="#EA7F1B"/>
<path d="M248.164 90.336C247.58 91.0688 248.178 92.1474 249.123 92.0783C251.946 91.8708 255.839 89.9626 258.856 87.5981C260.97 85.9388 261.804 84.238 262.499 82.5787C264.098 78.7761 261.776 74.5034 257.661 74.0194C254.073 73.5908 250.875 76.4669 251.084 80.0621C251.264 83.3116 250.722 87.1418 248.164 90.3636V90.336Z" fill="#EA7F1B"/>
<path d="M191.864 92.5069C191.864 82.8276 195.604 77.3104 198.552 73.6046C199.136 72.8855 198.538 71.8346 197.606 71.9453C178.946 74.0332 165 82.4404 165 92.5069C165 102.573 178.919 110.967 197.537 113.069C198.469 113.179 199.066 112.101 198.469 111.395C195.02 107.302 191.864 102.421 191.864 92.5069ZM181.268 92.5069C179.683 92.5069 178.404 91.2348 178.404 89.6584C178.404 88.0821 179.683 86.8099 181.268 86.8099C182.854 86.8099 184.133 88.0821 184.133 89.6584C184.133 91.2348 182.854 92.5069 181.268 92.5069Z" fill="#EA7F1B"/>
<path d="M243.13 92.5069L196.091 92.5069" stroke="#EA7F1B" stroke-width="3" stroke-linecap="round" stroke-linejoin="round"/>
</g>
<defs>
<clipPath id="clip0_9_27">
<rect width="148" height="71" fill="white"/>
</clipPath>
<clipPath id="clip1_9_27">
<rect width="98" height="47" fill="white" transform="translate(165 69)"/>
</clipPath>
</defs>
</svg>
