<svg width="38" height="38" viewBox="0 0 38 38" fill="none" xmlns="http://www.w3.org/2000/svg">
<path d="M17.2885 23.3846V23.6346H17.5385H19C19.3213 23.6346 19.6295 23.7623 19.8567 23.9895C20.0839 24.2167 20.2115 24.5248 20.2115 24.8462V36.5385C20.2115 36.8598 20.0839 37.1679 19.8567 37.3951C19.6295 37.6224 19.3213 37.75 19 37.75H7.30769C5.43588 37.75 3.64072 37.0064 2.31715 35.6828C0.993576 34.3593 0.25 32.5641 0.25 30.6923V7.30769C0.25 5.43588 0.993576 3.64072 2.31715 2.31715C3.64072 0.993576 5.43588 0.25 7.30769 0.25H30.6923C32.5641 0.25 34.3593 0.993576 35.6828 2.31715C37.0064 3.64072 37.75 5.43588 37.75 7.30769V30.6923C37.75 32.5641 37.0064 34.3593 35.6828 35.6828C34.3593 37.0064 32.5641 37.75 30.6923 37.75H24.8462C24.5248 37.75 24.2167 37.6224 23.9895 37.3951C23.7623 37.1679 23.6346 36.8598 23.6346 36.5385C23.6346 36.2171 23.7623 35.909 23.9895 35.6818C24.2167 35.4546 24.5248 35.3269 24.8462 35.3269H30.6923C31.9215 35.3269 33.1003 34.8386 33.9695 33.9695C34.8386 33.1003 35.3269 31.9215 35.3269 30.6923V7.30769C35.3269 6.07852 34.8386 4.89968 33.9695 4.03052C33.1003 3.16137 31.9215 2.67308 30.6923 2.67308H7.30769C6.07852 2.67308 4.89968 3.16137 4.03052 4.03052C3.16137 4.89968 2.67308 6.07852 2.67308 7.30769V30.6923C2.67308 31.9215 3.16137 33.1003 4.03052 33.9695C4.89968 34.8386 6.07852 35.3269 7.30769 35.3269H17.5385H17.7885V35.0769V26.3077V26.0577H17.5385H16.0769C15.7556 26.0577 15.4474 25.93 15.2202 25.7028C14.993 25.4756 14.8654 25.1675 14.8654 24.8462V19C14.8654 18.6787 14.993 18.3705 15.2202 18.1433C15.4474 17.9161 15.7556 17.7885 16.0769 17.7885H17.5385H17.7885V17.5385V13.8852C17.7922 12.2082 18.46 10.6009 19.6458 9.41507C20.8316 8.22929 22.4388 7.56146 24.1157 7.55769C24.1158 7.55769 24.1159 7.55769 24.1159 7.55769L29.2308 7.55769C29.5521 7.55769 29.8603 7.68534 30.0875 7.91254C30.3147 8.13975 30.4423 8.44791 30.4423 8.76923V14.6154C30.4423 14.9367 30.3147 15.2449 30.0875 15.4721C29.8603 15.6993 29.5521 15.8269 29.2308 15.8269H26.3077H26.0577V16.0769V17.5385V17.7885H26.3077H29.2308V17.7886L29.2395 17.7883C29.4296 17.7817 29.6186 17.8199 29.7912 17.8999C29.9635 17.9797 30.1147 18.099 30.2324 18.248C30.3454 18.3935 30.4238 18.5628 30.4615 18.7431C30.4993 18.9237 30.4954 19.1105 30.45 19.2893L30.4498 19.2901L28.9882 25.1363L28.988 25.137C28.9217 25.4058 28.7653 25.6438 28.5449 25.8114C28.3244 25.9789 28.0533 26.0659 27.7765 26.0578L27.7765 26.0577H27.7692H26.3077H26.0577V26.3077V30.6923C26.0577 31.0136 25.93 31.3218 25.7028 31.549C25.4756 31.7762 25.1675 31.9038 24.8462 31.9038C24.5248 31.9038 24.2167 31.7762 23.9895 31.549C23.7623 31.3218 23.6346 31.0136 23.6346 30.6923V24.8462C23.6346 24.5248 23.7623 24.2167 23.9895 23.9895C24.2167 23.7623 24.5248 23.6346 24.8462 23.6346H26.6292H26.8244L26.8718 23.4452L27.6025 20.5222L27.6802 20.2115H27.36H24.8462C24.5248 20.2115 24.2167 20.0839 23.9895 19.8567C23.7623 19.6295 23.6346 19.3213 23.6346 19V16.0769C23.6346 15.368 23.9162 14.6881 24.4175 14.1868C24.9188 13.6855 25.5987 13.4038 26.3077 13.4038H27.7692H28.0192V13.1538V10.2308V9.98077H27.7692H24.1154C23.08 9.98077 22.0871 10.3921 21.3549 11.1242C20.6228 11.8563 20.2115 12.8493 20.2115 13.8846V19C20.2115 19.3213 20.0839 19.6295 19.8567 19.8567C19.6295 20.0839 19.3213 20.2115 19 20.2115H17.5385H17.2885V20.4615V23.3846Z" fill="#EA7F1B" stroke="white" stroke-width="0.5"/>
</svg>
