<svg width="362" height="174" viewBox="0 0 362 174" fill="none" xmlns="http://www.w3.org/2000/svg">
<g clip-path="url(#clip0_2742_128)">
<path d="M93.6118 76.9419L93.6118 171.058" stroke="#EA7F1B" stroke-width="5" stroke-linecap="round" stroke-linejoin="round"/>
<path d="M121.264 93.4468L121.264 154.553" stroke="#EA7F1B" stroke-width="5" stroke-linecap="round" stroke-linejoin="round"/>
<path d="M148.386 107.951V140.049" stroke="#EA7F1B" stroke-width="5" stroke-linecap="round" stroke-linejoin="round"/>
<path d="M176.511 128.634C175.271 127.074 176.54 124.78 178.547 124.927C184.538 125.368 192.801 129.428 199.205 134.459C203.691 137.989 205.462 141.608 206.938 145.138C210.331 153.229 205.403 162.32 196.667 163.35C189.053 164.262 182.266 158.142 182.708 150.493C183.092 143.579 181.941 135.43 176.511 128.575V128.634Z" fill="#EA7F1B"/>
<path d="M176.511 119.396C175.271 120.955 176.54 123.25 178.547 123.103C184.538 122.661 192.801 118.601 199.205 113.57C203.691 110.04 205.462 106.421 206.938 102.891C210.331 94.8003 205.403 85.7094 196.667 84.6796C189.053 83.7676 182.266 89.8871 182.708 97.5364C183.092 104.45 181.941 112.6 176.511 119.455V119.396Z" fill="#EA7F1B"/>
<path d="M57.017 124.015C57.017 103.421 64.9557 91.6818 71.2123 83.7971C72.4518 82.2673 71.1828 80.0313 69.2055 80.2667C29.6005 84.7092 0 102.597 0 124.015C0 145.433 29.5414 163.291 69.0579 167.763C71.0352 167.998 72.3042 165.704 71.0352 164.203C63.7162 155.495 57.017 145.109 57.017 124.015ZM34.5289 124.015C31.1646 124.015 28.4495 121.308 28.4495 117.954C28.4495 114.6 31.1646 111.894 34.5289 111.894C37.8933 111.894 40.6084 114.6 40.6084 117.954C40.6084 121.308 37.8933 124.015 34.5289 124.015Z" fill="#EA7F1B"/>
<path d="M165.828 124.015L65.9888 124.015" stroke="#EA7F1B" stroke-width="5" stroke-linecap="round" stroke-linejoin="round"/>
</g>
<g clip-path="url(#clip1_2742_128)">
<path d="M288.857 1.88281V62.117" stroke="#EA7F1B" stroke-width="4" stroke-linecap="round" stroke-linejoin="round"/>
<path d="M306.539 12.4458V51.5538" stroke="#EA7F1B" stroke-width="4" stroke-linecap="round" stroke-linejoin="round"/>
<path d="M323.881 21.7285V42.271" stroke="#EA7F1B" stroke-width="4" stroke-linecap="round" stroke-linejoin="round"/>
<path d="M341.865 34.9656C341.072 33.9677 341.884 32.499 343.167 32.5932C346.998 32.8756 352.282 35.474 356.377 38.6938C359.245 40.9533 360.377 43.2693 361.321 45.5287C363.491 50.7067 360.339 56.5249 354.754 57.1839C349.885 57.7676 345.545 53.8512 345.828 48.9556C346.073 44.5308 345.337 39.3152 341.865 34.928V34.9656Z" fill="#EA7F1B"/>
<path d="M341.865 29.0534C341.072 30.0514 341.884 31.52 343.167 31.4259C346.998 31.1435 352.282 28.545 356.377 25.3253C359.245 23.0658 360.377 20.7498 361.321 18.4903C363.491 13.3123 360.339 7.49414 354.754 6.83513C349.885 6.25142 345.545 10.1679 345.828 15.0634C346.073 19.4883 345.337 24.7039 341.865 29.0911V29.0534Z" fill="#EA7F1B"/>
<path d="M265.458 32.0093C265.458 18.829 270.534 11.3162 274.535 6.26999C275.327 5.29088 274.516 3.85987 273.252 4.0105C247.927 6.85369 229 18.3018 229 32.0093C229 45.7169 247.889 57.1461 273.157 60.0081C274.422 60.1588 275.233 58.6901 274.422 57.7298C269.742 52.1564 265.458 45.5098 265.458 32.0093ZM251.079 32.0093C248.927 32.0093 247.191 30.277 247.191 28.1305C247.191 25.984 248.927 24.2517 251.079 24.2517C253.23 24.2517 254.966 25.984 254.966 28.1305C254.966 30.277 253.23 32.0093 251.079 32.0093Z" fill="#EA7F1B"/>
<path d="M335.034 32.0093L271.195 32.0093" stroke="#EA7F1B" stroke-width="4" stroke-linecap="round" stroke-linejoin="round"/>
</g>
<defs>
<clipPath id="clip0_2742_128">
<rect width="208" height="100" fill="white" transform="translate(0 74)"/>
</clipPath>
<clipPath id="clip1_2742_128">
<rect width="133" height="64" fill="white" transform="translate(229)"/>
</clipPath>
</defs>
</svg>
