<svg width="134" height="134" viewBox="0 0 134 134" fill="none" xmlns="http://www.w3.org/2000/svg">
<circle cx="67" cy="67" r="67" fill="white"/>
<g clip-path="url(#clip0_5_29)">
<path d="M88.6467 62.2054L45.3533 62.2054" stroke="#EA7F1B" stroke-width="3" stroke-linecap="round" stroke-linejoin="round"/>
<path d="M81.0544 74.9682L52.9456 74.9682" stroke="#EA7F1B" stroke-width="3" stroke-linecap="round" stroke-linejoin="round"/>
<path d="M74.3825 87.4858L59.6175 87.4858" stroke="#EA7F1B" stroke-width="3" stroke-linecap="round" stroke-linejoin="round"/>
<path d="M64.8685 100.467C65.5857 99.8944 66.6414 100.48 66.5737 101.406C66.3707 104.171 64.5031 107.985 62.1889 110.941C60.5649 113.011 58.9003 113.829 57.2762 114.51C53.5546 116.076 49.3727 113.801 48.8991 109.77C48.4795 106.255 51.2945 103.123 54.8132 103.327C57.9935 103.504 61.7423 102.973 64.8955 100.467L64.8685 100.467Z" fill="#EA7F1B"/>
<path d="M69.118 100.466C68.4007 99.8944 67.3451 100.48 67.4128 101.406C67.6158 104.171 69.4834 107.985 71.7976 110.941C73.4216 113.011 75.0862 113.829 76.7102 114.51C80.4319 116.076 84.6137 113.801 85.0874 109.77C85.5069 106.255 82.692 103.123 79.1733 103.327C75.9929 103.504 72.2442 102.973 69.0909 100.466L69.118 100.466Z" fill="#EA7F1B"/>
<path d="M66.9932 45.3155C76.4666 45.3156 81.8664 48.9796 85.4934 51.8672C86.1971 52.4393 87.2256 51.8536 87.1174 50.941C85.0738 32.6617 76.8455 19 66.9932 19C57.1409 19 48.9261 32.6345 46.8691 50.8729C46.7608 51.7855 47.8164 52.3712 48.5066 51.7855C52.5125 48.4075 57.2898 45.3155 66.9932 45.3155ZM66.9932 34.9364C66.9932 33.3837 68.2383 32.1305 69.7811 32.1305C71.3239 32.1305 72.569 33.3837 72.569 34.9364C72.569 36.4892 71.3239 37.7423 69.7811 37.7423C68.2383 37.7423 66.9932 36.4892 66.9932 34.9364Z" fill="#EA7F1B"/>
<path d="M66.9932 95.5357L66.9932 49.4563" stroke="#EA7F1B" stroke-width="3" stroke-linecap="round" stroke-linejoin="round"/>
</g>
<defs>
<clipPath id="clip0_5_29">
<rect width="96" height="46" fill="white" transform="translate(90 19) rotate(90)"/>
</clipPath>
</defs>
</svg>
