<svg width="38" height="38" viewBox="0 0 38 38" fill="none" xmlns="http://www.w3.org/2000/svg">
<path d="M25.5046 14.8906L25.5064 14.8899C25.6622 14.8284 25.8288 14.7983 25.9963 14.8014C26.1638 14.8046 26.3291 14.8408 26.4826 14.9081C26.6361 14.9754 26.7747 15.0724 26.8905 15.1935C27.0063 15.3146 27.097 15.4575 27.1574 15.6138L27.1574 15.6138C27.7771 17.2182 27.9169 18.9681 27.56 20.6506C27.203 22.333 26.3646 23.8754 25.1469 25.0899L25.1467 25.0901C23.4836 26.7511 21.2292 27.6841 18.8786 27.6841C16.5281 27.6841 14.2737 26.7512 12.6106 25.0902C11.1785 23.6549 10.2813 21.7723 10.0685 19.7559C9.85574 17.7394 10.3402 15.711 11.4413 14.0083C12.5424 12.3057 14.1936 11.0317 16.1199 10.3986C18.0461 9.76547 20.131 9.81139 22.0275 10.5287C22.3424 10.6482 22.5969 10.888 22.7351 11.1953C22.8732 11.5025 22.8837 11.8521 22.7641 12.167C22.6445 12.4819 22.4047 12.7365 22.0975 12.8746C21.7903 13.0127 21.4408 13.0232 21.1259 12.9037C19.7708 12.3881 18.2799 12.3534 16.9022 12.8052C15.5246 13.2571 14.3439 14.1681 13.5574 15.3861C12.7709 16.604 12.4263 18.055 12.5813 19.4966C12.7362 20.9381 13.3813 22.2827 14.4087 23.3057C15.4361 24.3286 16.7836 24.9679 18.2257 25.1166C19.6679 25.2653 21.1174 24.9144 22.3319 24.1227C23.5465 23.3309 24.4524 22.1462 24.8982 20.7666C25.3441 19.3871 25.3029 17.8962 24.7815 16.5434L24.7815 16.5434L24.7807 16.5416C24.7192 16.3857 24.6892 16.2192 24.6923 16.0516C24.6954 15.8841 24.7317 15.7188 24.799 15.5654C24.8662 15.4119 24.9632 15.2732 25.0844 15.1574C25.2055 15.0416 25.3483 14.9509 25.5046 14.8906Z" fill="#EA7F1B" stroke="white" stroke-width="0.5"/>
<path d="M30.5605 8.0908C30.5605 8.7922 29.9919 9.3608 29.2905 9.3608C28.5891 9.3608 28.0205 8.7922 28.0205 8.0908C28.0205 7.3894 28.5891 6.8208 29.2905 6.8208C29.9919 6.8208 30.5605 7.3894 30.5605 8.0908Z" fill="#EA7F1B" stroke="white" stroke-width="0.5"/>
<path d="M36.6404 8.09085L36.6404 8.101L36.6412 8.11111C37.2178 15.2198 37.2178 22.3636 36.6412 29.4723L36.6406 29.4804L36.6405 29.4885C36.6099 31.4047 35.8321 33.2332 34.4728 34.5843C33.1135 35.9353 31.2803 36.702 29.364 36.7209L29.3529 36.721L29.342 36.7221C25.7937 37.0709 22.245 37.2377 18.6504 37.2377C15.0564 37.2377 11.4618 37.0557 7.88163 36.722L7.87255 36.7211L7.86342 36.7209C5.93967 36.6825 4.10772 35.8911 2.76096 34.5169C1.4142 33.1427 0.660041 31.2951 0.660426 29.3709L0.660428 29.3613L0.659691 29.3517C0.113436 22.2411 0.113436 15.0991 0.659691 7.98845L0.660272 7.98088L0.660394 7.9733C0.69126 6.04441 1.47924 4.20498 2.8543 2.85192C4.22936 1.49886 6.08126 0.740651 8.01039 0.740898L8.02186 0.7409L8.03328 0.739851C15.1471 0.0867163 22.3058 0.0867163 29.4196 0.739851L29.4285 0.740669L29.4374 0.740848C31.3612 0.779331 33.1931 1.57066 34.5399 2.9449C35.8867 4.31915 36.6408 6.16671 36.6404 8.09085ZM32.6916 32.7721C33.5912 31.8725 34.0977 30.6532 34.1004 29.3813C34.6779 22.3345 34.678 15.2522 34.1007 8.20542C34.1159 7.56768 34.0041 6.93323 33.7717 6.33904C33.5376 5.74058 33.1861 5.19508 32.7377 4.73476C32.2893 4.27443 31.7533 3.90862 31.1612 3.65891C30.5727 3.41073 29.9407 3.28225 29.3021 3.28091C25.701 2.94651 22.1451 2.78435 18.6345 2.7945C15.1261 2.80464 11.6278 2.96667 8.13954 3.28058C7.50095 3.26343 6.86529 3.37366 6.26967 3.60489C5.66934 3.83795 5.12192 4.18919 4.65987 4.63778C4.19782 5.08636 3.83056 5.62317 3.57986 6.21635C3.33041 6.80659 3.20142 7.44069 3.20043 8.0814C2.6685 15.1294 2.66842 22.2075 3.20019 29.2556C3.18488 29.8936 3.2967 30.5283 3.52917 31.1228C3.76321 31.7212 4.1148 32.2667 4.56317 32.727C5.01153 33.1874 5.54759 33.5532 6.13969 33.8029C6.72799 34.051 7.35976 34.1795 7.99816 34.1809C15.0324 34.8649 22.1164 34.8649 29.1506 34.1809H29.2904C30.5661 34.1809 31.7896 33.6741 32.6916 32.7721Z" fill="#EA7F1B" stroke="white" stroke-width="0.5"/>
</svg>
