<svg width="38" height="37" viewBox="0 0 38 37" fill="none" xmlns="http://www.w3.org/2000/svg">
<path d="M35.218 15.9119V15.9094C35.218 15.6361 35.3265 15.374 35.5198 15.1808C35.713 14.9875 35.9751 14.879 36.2484 14.879C36.5217 14.879 36.7838 14.9875 36.977 15.1808C37.1694 15.3731 37.2778 15.6337 37.2788 15.9057C37.2534 16.7032 37.1567 17.4968 36.9898 18.2771L36.9843 18.3029V18.3293V18.3296V18.3299V18.3303V18.3306V18.3309V18.3312V18.3315V18.3318V18.3321V18.3324V18.3327V18.333V18.3333V18.3337V18.334V18.3343V18.3346V18.3349V18.3353V18.3356V18.3359V18.3362V18.3365V18.3369V18.3372V18.3375V18.3379V18.3382V18.3385V18.3388V18.3392V18.3395V18.3398V18.3402V18.3405V18.3409V18.3412V18.3415V18.3419V18.3422V18.3426V18.3429V18.3432V18.3436V18.3439V18.3443V18.3446V18.345V18.3453V18.3457V18.346V18.3464V18.3467V18.3471V18.3474V18.3478V18.3481V18.3485V18.3489V18.3492V18.3496V18.3499V18.3503V18.3507V18.351V18.3514V18.3517V18.3521V18.3525V18.3528V18.3532V18.3536V18.3539V18.3543V18.3547V18.355V18.3554V18.3558V18.3561V18.3565V18.3569V18.3573V18.3576V18.358V18.3584V18.3588V18.3591V18.3595V18.3599V18.3603V18.3606V18.361V18.3614V18.3618V18.3622V18.3625V18.3629V18.3633V18.3637V18.3641V18.3645V18.3648V18.3652V18.3656V18.366V18.3664V18.3668V18.3671V18.3675V18.3679V18.3683V18.3687V18.3691V18.3695V18.3699V18.3703V18.3706V18.371V18.3714V18.3718V18.3722V18.3726V18.373V18.3734V18.3738V18.3742V18.3746V18.375V18.3754V18.3757V18.3761V18.3765V18.3769V18.3773V18.3777V18.3781V18.3785V18.3789V18.3793V18.3797V18.3801V18.3805V18.3809V18.3813V18.3817V18.3821V18.3825V18.3829V18.3833V18.3837V18.3841V18.3845V18.3849V18.3853V18.3857V18.3861V18.3865V18.3869V18.3873V18.3877V18.3881V18.3885V18.3889V18.3893V18.3897V18.3901V18.3905V18.3909V18.3913V18.3917V18.3921V18.3925V18.3929V18.3933V18.3937V18.3941V18.3945V18.3949V18.3953V18.3957V18.3961V18.3965V18.3969V18.3973V18.3977V18.3981V18.3985V18.3989V18.3993V18.3997V18.4001V18.4005V18.4009V18.4013V18.4017V18.4021V18.4025V18.4029V18.4033V18.4037V18.404V18.4044V18.4048V18.4052V18.4056V18.406V18.4064V18.4068V18.4072V18.4076V18.408V18.4084V18.4088V18.4092V18.4096V18.41V18.4104V18.4108V18.4112V18.4115V18.4119V18.4123V18.4127V18.4131V18.4135V18.4139V18.4143V18.4147V18.4151V18.4154V18.4158V18.4162V18.4166V18.417V18.4174V18.4178V18.4181V18.4185V18.4189V18.4193V18.4197V18.4201V18.4205V18.4208V18.4212V18.4216V18.422V18.4224V18.4227V18.4231V18.4235V18.4239V18.4242V18.4246V18.425V18.4254V18.4258V18.4261V18.4265V18.4269V18.4272V18.4276V18.428V18.4284V18.4287V18.4291V18.4295V18.4298V18.4302V18.4306V18.4309V18.4313V18.4317V18.432V18.4324V18.4328V18.4331V18.4335V18.4338V18.4342V18.4346V18.4349V18.4353V18.4356V18.436V18.4363V18.4367V18.437V18.4374V18.4377V18.4381V18.4384V18.4388V18.4391V18.4395V18.4398V18.4402V18.4405V18.4409V18.4412V18.4416V18.4419V18.4422V18.4426V18.4429V18.4433V18.4436V18.4439V18.4443V18.4446V18.4449V18.4453V18.4456V18.4459V18.4463V18.4466V18.4469V18.4472V18.4476V18.4479V18.4482V18.4485V18.4488V18.4492V18.4495V18.4498V18.4501V18.4504V18.4508V18.4511V18.4514V18.4517V18.452V18.4523V18.4526V18.4529V18.4532V18.4535V18.4538V18.4541V18.4544V18.4547V18.455V18.4553V18.4556V18.4559V18.4562V18.4565V18.4568V18.4571V18.4574V18.4577V18.458V18.4582V18.4585V18.4588V18.4591V18.4594V18.4597V18.4599V18.4602V18.4605V18.4608V18.461V18.4613V18.4616V18.4618V18.4621V18.4624V18.4626V18.4629V18.4632V18.4634V18.4635C36.7703 19.817 36.3043 21.1184 35.6103 22.3001L35.6101 22.3L35.6054 22.3087C34.5913 24.2036 33.2017 25.872 31.5215 27.212L31.5214 27.2119L31.5156 27.2168C27.2594 30.827 22.5417 33.8548 17.4868 36.2207L17.4868 36.2206L17.4788 36.2246C17.3356 36.298 17.1772 36.3368 17.0163 36.338C16.789 36.337 16.5684 36.261 16.3889 36.1216L16.3877 36.1207C16.2334 36.0024 16.1158 35.8429 16.0483 35.6605C15.9809 35.4784 15.9664 35.281 16.0063 35.0909C16.0064 35.0907 16.0064 35.0905 16.0065 35.0903L16.736 31.7242L16.7952 31.4508L16.517 31.4225C7.18648 30.4717 0.25 23.8159 0.25 15.9094C0.25 7.31375 8.51007 0.256685 18.758 0.256685V0.25677L18.7645 0.2566C21.7901 0.177597 24.792 0.808825 27.5295 2.09964C30.2657 3.38983 32.6615 5.30307 34.525 7.68599C34.6037 7.79484 34.6603 7.91799 34.6918 8.04854C34.7237 8.18043 34.7292 8.31729 34.7081 8.45131C34.6871 8.58533 34.6398 8.7139 34.5691 8.82965C34.4983 8.94542 34.4055 9.04611 34.2958 9.12599C34.1862 9.20587 34.0618 9.26336 33.93 9.29519C33.7981 9.32702 33.6612 9.33257 33.5272 9.31151C33.3932 9.29044 33.2646 9.24319 33.1488 9.17244C33.0331 9.1017 32.9324 9.00885 32.8525 8.89919L32.8527 8.89908L32.8468 8.8916C31.1745 6.77027 29.0282 5.07055 26.5801 3.92886C24.1331 2.78771 21.4529 2.23585 18.7542 2.3175C9.74143 2.31921 2.31048 8.37936 2.33643 15.9098C2.33669 22.9145 8.6872 28.6603 17.0202 29.3978L17.0202 29.3979L17.0274 29.3984C17.3141 29.4154 17.5938 29.4938 17.8475 29.6284C18.1012 29.7629 18.3231 29.9505 18.498 30.1783C18.6729 30.4061 18.7967 30.6688 18.8612 30.9486C18.9257 31.2285 18.9292 31.519 18.8716 31.8003L18.8714 31.8014L18.6537 32.8898L18.5529 33.3937L19.0116 33.162C23.0557 31.1188 26.8375 28.5935 30.2744 25.6412C31.7665 24.4574 33.0022 22.9824 33.9062 21.306C34.43 20.3882 34.7942 19.3882 34.9835 18.3485L34.9892 18.3171L34.9868 18.2854C34.9818 18.2176 34.9815 18.1495 34.9858 18.0816C35.1327 17.3676 35.2105 16.641 35.218 15.9119Z" fill="#EA7F1B" stroke="white" stroke-width="0.5"/>
<path d="M7.82937 18.2912V18.5412H8.07937H10.6402C10.9135 18.5412 11.1756 18.6498 11.3688 18.843C11.562 19.0362 11.6706 19.2983 11.6706 19.5716C11.6706 19.8449 11.562 20.107 11.3688 20.3002C11.1756 20.4935 10.9135 20.602 10.6402 20.602H6.79896C6.52568 20.602 6.26359 20.4935 6.07035 20.3002C5.87712 20.107 5.76855 19.8449 5.76855 19.5716V13.1696C5.76855 12.8963 5.87712 12.6342 6.07035 12.441C6.26359 12.2477 6.52568 12.1392 6.79896 12.1392C7.07225 12.1392 7.33433 12.2477 7.52757 12.441C7.72081 12.6342 7.82937 12.8963 7.82937 13.1696V18.2912Z" fill="#EA7F1B" stroke="white" stroke-width="0.5"/>
<path d="M13.4509 19.5716V13.1696C13.4509 12.8963 13.5595 12.6342 13.7527 12.441C13.946 12.2477 14.2081 12.1392 14.4813 12.1392C14.7546 12.1392 15.0167 12.2477 15.2099 12.441C15.4032 12.6342 15.5117 12.8963 15.5117 13.1696V19.5716C15.5117 19.8449 15.4032 20.107 15.2099 20.3002C15.0167 20.4935 14.7546 20.602 14.4813 20.602C14.2081 20.602 13.946 20.4935 13.7527 20.3002C13.5595 20.107 13.4509 19.8449 13.4509 19.5716Z" fill="#EA7F1B" stroke="white" stroke-width="0.5"/>
<path d="M21.969 16.0788L22.4141 16.6341V15.9224V13.1696C22.4141 12.8963 22.5227 12.6342 22.7159 12.441C22.9092 12.2477 23.1712 12.1392 23.4445 12.1392C23.7178 12.1392 23.9799 12.2477 24.1731 12.441C24.3664 12.6342 24.4749 12.8963 24.4749 13.1696V19.5711C24.474 19.7839 24.4072 19.9913 24.2836 20.1646C24.16 20.338 23.9856 20.4689 23.7846 20.5392L23.7846 20.5392L23.7817 20.5402C23.673 20.5797 23.5583 20.6006 23.4426 20.602C23.2891 20.6024 23.1373 20.5684 22.9986 20.5026C22.8598 20.4368 22.7374 20.3407 22.6405 20.2215C22.6403 20.2213 22.6402 20.221 22.64 20.2208L19.7987 16.6627L19.3533 16.105V16.8187V19.5716C19.3533 19.8449 19.2447 20.107 19.0515 20.3002C18.8583 20.4935 18.5962 20.602 18.3229 20.602C18.0496 20.602 17.7875 20.4935 17.5943 20.3002C17.401 20.107 17.2925 19.8449 17.2925 19.5716V13.1701C17.2934 12.9573 17.3603 12.7499 17.4838 12.5766C17.6074 12.4032 17.7817 12.2723 17.9827 12.202C18.184 12.132 18.4021 12.126 18.6069 12.1851C18.8117 12.2441 18.9932 12.3653 19.1263 12.5318L19.1265 12.5321L21.969 16.0788Z" fill="#EA7F1B" stroke="white" stroke-width="0.5"/>
<path d="M28.3159 18.5412V18.2912V17.651V17.401H28.5659H31.1268C31.4 17.401 31.6621 17.2924 31.8554 17.0992C32.0486 16.906 32.1572 16.6439 32.1572 16.3706C32.1572 16.0973 32.0486 15.8352 31.8554 15.642C31.6621 15.4487 31.4 15.3402 31.1268 15.3402H28.5659H28.3159V15.0902V14.45V14.2H28.5659H31.1268C31.4 14.2 31.6621 14.0914 31.8554 13.8982C32.0486 13.7049 32.1572 13.4429 32.1572 13.1696C32.1572 12.8963 32.0486 12.6342 31.8554 12.441M28.3159 18.5412L31.8554 12.441M28.3159 18.5412H28.5659M28.3159 18.5412H28.5659M31.8554 12.441C31.6621 12.2477 31.4 12.1392 31.1268 12.1392H27.2855C27.0123 12.1392 26.7502 12.2477 26.5569 12.441C26.3637 12.6342 26.2551 12.8963 26.2551 13.1696V19.5716C26.2551 19.8449 26.3637 20.107 26.5569 20.3002C26.7502 20.4935 27.0123 20.602 27.2855 20.602H31.1268C31.4 20.602 31.6621 20.4935 31.8554 20.3002C32.0486 20.107 32.1572 19.8449 32.1572 19.5716C32.1572 19.2983 32.0486 19.0362 31.8554 18.843C31.6621 18.6498 31.4 18.5412 31.1268 18.5412H28.5659M31.8554 12.441L28.5659 18.5412" fill="#EA7F1B" stroke="white" stroke-width="0.5"/>
</svg>
