<svg width="98" height="47" viewBox="0 0 98 47" fill="none" xmlns="http://www.w3.org/2000/svg">
<g clip-path="url(#clip0_99_295)">
<path d="M44.1055 1.38281L44.1055 45.6173" stroke="#EA7F1B" stroke-width="3" stroke-linecap="round" stroke-linejoin="round"/>
<path d="M57.1343 9.14001L57.1343 37.8599" stroke="#EA7F1B" stroke-width="3" stroke-linecap="round" stroke-linejoin="round"/>
<path d="M69.9126 15.957V31.0429" stroke="#EA7F1B" stroke-width="3" stroke-linecap="round" stroke-linejoin="round"/>
<path d="M83.1636 25.6778C82.5796 24.945 83.1775 23.8664 84.123 23.9355C86.9457 24.143 90.839 26.0512 93.8563 28.4157C95.9698 30.075 96.8041 31.7758 97.4993 33.4351C99.0984 37.2377 96.7763 41.5104 92.6605 41.9944C89.0731 42.423 85.875 39.5469 86.0836 35.9517C86.2644 32.7022 85.7221 28.872 83.1636 25.6502V25.6778Z" fill="#EA7F1B"/>
<path d="M83.1636 21.3359C82.5796 22.0688 83.1775 23.1473 84.123 23.0782C86.9457 22.8708 90.839 20.9626 93.8563 18.5981C95.9698 16.9387 96.8041 15.238 97.4993 13.5786C99.0984 9.77605 96.7763 5.50333 92.6605 5.01936C89.0731 4.59071 85.875 7.46685 86.0836 11.062C86.2644 14.3115 85.7221 18.1418 83.1636 21.3636V21.3359Z" fill="#EA7F1B"/>
<path d="M26.8638 23.507C26.8638 13.8276 30.6041 8.31043 33.5519 4.60464C34.1359 3.8856 33.538 2.83471 32.6064 2.94533C13.9464 5.03329 0 13.4405 0 23.507C0 33.5734 13.9186 41.9668 32.5369 44.0686C33.4685 44.1792 34.0664 43.1007 33.4685 42.3955C30.0201 38.3025 26.8638 33.4213 26.8638 23.507ZM16.2684 23.507C14.6833 23.507 13.4041 22.2348 13.4041 20.6585C13.4041 19.0821 14.6833 17.81 16.2684 17.81C17.8536 17.81 19.1328 19.0821 19.1328 20.6585C19.1328 22.2348 17.8536 23.507 16.2684 23.507Z" fill="#EA7F1B"/>
<path d="M78.1303 23.507L31.0908 23.507" stroke="#EA7F1B" stroke-width="3" stroke-linecap="round" stroke-linejoin="round"/>
</g>
<defs>
<clipPath id="clip0_99_295">
<rect width="98" height="47" fill="white"/>
</clipPath>
</defs>
</svg>
