<svg width="119" height="94" viewBox="0 0 119 94" fill="none" xmlns="http://www.w3.org/2000/svg">
<path d="M74.6159 10.6629C67.0722 5.25549 57.7835 2.06653 47.7469 2.06653C22.5255 2.06653 2.08386 22.1815 2.08386 47C2.08386 71.8184 22.5255 91.9334 47.7469 91.9334C66.5519 91.9334 82.7015 80.7454 89.7032 64.7579C90.321 63.3394 92.3153 58.252 93.1824 56.2469C94.8299 52.4287 96.9651 51.8101 98.5692 51.3835" stroke="#EA7F1B" stroke-width="3" stroke-linecap="round" stroke-linejoin="round"/>
<path d="M33.906 47.6932H73.4778" stroke="#EA7F1B" stroke-width="3" stroke-linecap="round" stroke-linejoin="round"/>
<path d="M44.051 30.6392V64.7579" stroke="#EA7F1B" stroke-width="3" stroke-linecap="round" stroke-linejoin="round"/>
<path d="M54.2068 36.6225V58.7746" stroke="#EA7F1B" stroke-width="3" stroke-linecap="round" stroke-linejoin="round"/>
<path d="M64.1674 41.8806V53.5059" stroke="#EA7F1B" stroke-width="3" stroke-linecap="round" stroke-linejoin="round"/>
<path d="M73.4778 47.6932C88.6085 47.6932 88.5435 30.9912 84.3598 22.1495C80.1761 13.3079 71.6353 8.70044 71.6353 8.70044" stroke="#EA7F1B" stroke-width="3" stroke-linecap="round" stroke-linejoin="round"/>
<path d="M103.869 49.1438C103.154 48.9731 103.002 48.0452 103.609 47.6399C105.441 46.4241 108.682 44.8669 112.54 45.6455C113.852 45.9121 115.185 46.4347 116.41 47.0427C119.293 48.4718 119.889 52.2794 117.602 54.5298C115.608 56.4922 112.269 56.2683 110.643 53.9965C109.18 51.9488 106.991 49.8797 103.858 49.1438H103.869Z" fill="#EA7F1B"/>
<path d="M30.6111 47.6933C30.6111 40.2275 33.5267 35.972 35.8245 33.1136C36.2797 32.559 35.8136 31.7484 35.0875 31.8338C20.5529 33.4443 9.6709 39.9395 9.6709 47.6933C9.6709 55.447 20.5204 61.9316 35.0333 63.5528C35.7594 63.6381 36.2255 62.8062 35.7594 62.2622C33.0715 59.1053 30.6111 55.3404 30.6111 47.6933Z" fill="#EA7F1B"/>
<path d="M22.3412 47.6933C23.5743 47.6933 24.574 46.7096 24.574 45.4962C24.574 44.2828 23.5743 43.2991 22.3412 43.2991C21.1081 43.2991 20.1085 44.2828 20.1085 45.4962C20.1085 46.7096 21.1081 47.6933 22.3412 47.6933Z" fill="white"/>
</svg>
