<svg width="158" height="158" viewBox="0 0 158 158" fill="none" xmlns="http://www.w3.org/2000/svg">
<circle cx="79" cy="79" r="78" fill="white" stroke="white" stroke-width="2"/>
<path d="M95.6159 42.6629C88.0722 37.2555 78.7835 34.0665 68.7469 34.0665C43.5255 34.0665 23.0839 54.1815 23.0839 79C23.0839 103.818 43.5255 123.933 68.7469 123.933C87.5519 123.933 103.701 112.745 110.703 96.7579C111.321 95.3394 113.315 90.252 114.182 88.2469C115.83 84.4287 117.965 83.8101 119.569 83.3835" stroke="#EA7F1B" stroke-width="3" stroke-linecap="round" stroke-linejoin="round"/>
<path d="M54.906 79.6933H94.4778" stroke="#EA7F1B" stroke-width="3" stroke-linecap="round" stroke-linejoin="round"/>
<path d="M65.051 62.6392V96.7579" stroke="#EA7F1B" stroke-width="3" stroke-linecap="round" stroke-linejoin="round"/>
<path d="M75.2068 68.6225V90.7746" stroke="#EA7F1B" stroke-width="3" stroke-linecap="round" stroke-linejoin="round"/>
<path d="M85.1674 73.8806V85.5059" stroke="#EA7F1B" stroke-width="3" stroke-linecap="round" stroke-linejoin="round"/>
<path d="M94.4778 79.6933C109.609 79.6933 109.544 62.9912 105.36 54.1495C101.176 45.3079 92.6353 40.7004 92.6353 40.7004" stroke="#EA7F1B" stroke-width="3" stroke-linecap="round" stroke-linejoin="round"/>
<path d="M124.869 81.1438C124.154 80.9731 124.002 80.0452 124.609 79.6399C126.441 78.4241 129.682 76.8669 133.54 77.6455C134.852 77.9121 136.185 78.4347 137.41 79.0427C140.293 80.4718 140.889 84.2794 138.602 86.5298C136.608 88.4922 133.269 88.2683 131.643 85.9965C130.18 83.9488 127.991 81.8797 124.858 81.1438H124.869Z" fill="#EA7F1B"/>
<path d="M51.6111 79.6933C51.6111 72.2275 54.5267 67.9719 56.8245 65.1136C57.2797 64.559 56.8136 63.7484 56.0874 63.8338C41.5529 65.4442 30.6709 71.9395 30.6709 79.6933C30.6709 87.447 41.5203 93.9316 56.0332 95.5527C56.7594 95.6381 57.2255 94.8062 56.7594 94.2622C54.0715 91.1053 51.6111 87.3404 51.6111 79.6933Z" fill="#EA7F1B"/>
<path d="M43.3412 79.6933C44.5743 79.6933 45.574 78.7096 45.574 77.4962C45.574 76.2828 44.5743 75.2991 43.3412 75.2991C42.1081 75.2991 41.1085 76.2828 41.1085 77.4962C41.1085 78.7096 42.1081 79.6933 43.3412 79.6933Z" fill="white"/>
</svg>
